<svg xmlns="http://www.w3.org/2000/svg" viewBox="0 0 56 56" fill="none">
  <path d="M28 12.3884L29.8594 15.1454C30.838 16.5964 31.3273 17.3219 31.9855 17.5732C32.3945 17.7293 32.8404 17.7615 33.2675 17.6657C33.955 17.5115 34.5433 16.8637 35.72 15.5681L42.4773 8.12855M28 12.3884L25.3573 8.46988C23.9294 6.35274 25.4464 3.5 28 3.5C30.5536 3.5 32.0706 6.35274 30.6427 8.46988L28 12.3884ZM28 12.3884L26.1406 15.1454C25.162 16.5964 24.6727 17.3219 24.0145 17.5732C23.6055 17.7293 23.1596 17.7615 22.7325 17.6657C22.045 17.5115 21.4567 16.8637 20.2799 15.5681L13.5227 8.12855M28 43.6116L26.1406 40.8546C25.162 39.4036 24.6727 38.6781 24.0145 38.4268C23.6055 38.2707 23.1596 38.2385 22.7325 38.3343C22.045 38.4885 21.4567 39.1363 20.28 40.4319L13.5227 47.8714M28 43.6116L30.6427 47.5301C32.0706 49.6473 30.5536 52.5 28 52.5C25.4464 52.5 23.9294 49.6473 25.3573 47.5301L28 43.6116ZM28 43.6116L29.8594 40.8546C30.838 39.4036 31.3273 38.6781 31.9855 38.4268C32.3945 38.2707 32.8404 38.2385 33.2675 38.3343C33.955 38.4885 34.5433 39.1363 35.7201 40.4319L42.4773 47.8714M43.6116 28L40.8546 29.8594C39.4036 30.838 38.6781 31.3273 38.4268 31.9855C38.2707 32.3945 38.2385 32.8404 38.3343 33.2675C38.4885 33.955 39.1363 34.5433 40.4319 35.72L47.8714 42.4773M43.6116 28L47.5301 25.3573C49.6473 23.9294 52.5 25.4464 52.5 28C52.5 30.5536 49.6473 32.0706 47.5301 30.6427L43.6116 28ZM43.6116 28L40.8546 26.1406C39.4036 25.162 38.6781 24.6727 38.4268 24.0145C38.2707 23.6055 38.2385 23.1596 38.3343 22.7325C38.4885 22.045 39.1363 21.4567 40.4319 20.2799L47.8714 13.5227M12.3884 28L15.1454 26.1406C16.5964 25.162 17.3219 24.6727 17.5732 24.0145C17.7293 23.6055 17.7615 23.1596 17.6657 22.7325C17.5115 22.045 16.8637 21.4567 15.5681 20.28L8.12855 13.5227M12.3884 28L8.46988 30.6427C6.35274 32.0706 3.5 30.5536 3.5 28C3.5 25.4464 6.35275 23.9294 8.46988 25.3573L12.3884 28ZM12.3884 28L15.1454 29.8594C16.5964 30.838 17.3219 31.3273 17.5732 31.9855C17.7293 32.3945 17.7615 32.8404 17.6657 33.2675C17.5115 33.955 16.8637 34.5433 15.5681 35.7201L8.12855 42.4773" stroke="#55644A" stroke-width="3" stroke-linecap="round" stroke-linejoin="round"/>
</svg>